<svg width="40" height="40" viewBox="0 0 40 40" fill="none" xmlns="http://www.w3.org/2000/svg">
<rect width="40" height="40" rx="8" fill="#7C3AED"/>
<path d="M19.9902 29.7227C17.7379 29.1555 15.8785 27.8633 14.4121 25.8459C12.9456 23.8286 12.2124 21.5884 12.2124 19.1254V13.1949L19.9902 10.2782L27.768 13.1949V19.1254C27.768 21.5884 27.0347 23.8286 25.5683 25.8459C24.1019 27.8633 22.2425 29.1555 19.9902 29.7227ZM19.9902 27.681C21.6754 27.1463 23.0689 26.0768 24.1707 24.4727C25.2726 22.8685 25.8235 21.0861 25.8235 19.1254V14.5317L19.9902 12.3442L14.1568 14.5317V19.1254C14.1568 21.0861 14.7078 22.8685 15.8096 24.4727C16.9115 26.0768 18.305 27.1463 19.9902 27.681Z" fill="white"/>
</svg>
